<?xml version="1.0" encoding="utf-8"?>
<!-- Generator: Adobe Illustrator 24.1.2, SVG Export Plug-In . SVG Version: 6.00 Build 0)  -->
<svg version="1.1" id="Layer_1" xmlns="http://www.w3.org/2000/svg" xmlns:xlink="http://www.w3.org/1999/xlink" x="0px" y="0px"
	 viewBox="0 0 170.2 71.1" style="enable-background:new 0 0 170.2 71.1;" xml:space="preserve">
<style type="text/css">
	.st0{clip-path:url(#SVGID_2_);fill:#FFFFFF;}
	.st1{clip-path:url(#SVGID_2_);fill:#FEFFFF;}
	.st2{clip-path:url(#SVGID_2_);fill:#FDFEFF;}
	.st3{clip-path:url(#SVGID_2_);fill:#FCFEFE;}
	.st4{clip-path:url(#SVGID_2_);fill:#FBFDFE;}
	.st5{clip-path:url(#SVGID_2_);fill:#FAFDFE;}
	.st6{clip-path:url(#SVGID_2_);fill:#F9FDFE;}
	.st7{clip-path:url(#SVGID_2_);fill:#F9FCFE;}
	.st8{clip-path:url(#SVGID_2_);fill:#F8FCFD;}
	.st9{clip-path:url(#SVGID_2_);fill:#F7FCFD;}
	.st10{clip-path:url(#SVGID_2_);fill:#F7FBFD;}
	.st11{clip-path:url(#SVGID_2_);fill:#F6FBFD;}
	.st12{clip-path:url(#SVGID_2_);fill:#F5FBFD;}
	.st13{clip-path:url(#SVGID_2_);fill:#F5FAFD;}
	.st14{clip-path:url(#SVGID_2_);fill:#F4FAFC;}
	.st15{clip-path:url(#SVGID_2_);fill:#F3FAFC;}
	.st16{clip-path:url(#SVGID_2_);fill:#F2F9FC;}
	.st17{clip-path:url(#SVGID_2_);fill:#F1F9FC;}
	.st18{clip-path:url(#SVGID_2_);fill:#F0F8FC;}
	.st19{clip-path:url(#SVGID_2_);fill:#EFF8FB;}
	.st20{clip-path:url(#SVGID_2_);fill:#EEF8FB;}
	.st21{clip-path:url(#SVGID_2_);fill:#EDF7FB;}
	.st22{clip-path:url(#SVGID_2_);fill:#ECF7FB;}
	.st23{clip-path:url(#SVGID_2_);fill:#EBF6FA;}
	.st24{clip-path:url(#SVGID_2_);fill:#EAF6FA;}
	.st25{clip-path:url(#SVGID_2_);fill:#E9F5FA;}
	.st26{clip-path:url(#SVGID_2_);fill:#E8F5FA;}
	.st27{clip-path:url(#SVGID_2_);fill:#E7F5FA;}
	.st28{clip-path:url(#SVGID_2_);fill:#E6F4F9;}
	.st29{clip-path:url(#SVGID_2_);fill:#E5F3F9;}
	.st30{clip-path:url(#SVGID_2_);fill:#E4F3F9;}
	.st31{clip-path:url(#SVGID_2_);fill:#E3F3F9;}
	.st32{clip-path:url(#SVGID_2_);fill:#E2F2F8;}
	.st33{clip-path:url(#SVGID_2_);fill:#E1F2F8;}
	.st34{clip-path:url(#SVGID_2_);fill:#E0F1F8;}
	.st35{clip-path:url(#SVGID_2_);fill:#DFF1F8;}
	.st36{clip-path:url(#SVGID_2_);fill:#DEF1F8;}
	.st37{clip-path:url(#SVGID_2_);fill:#DDF0F7;}
	.st38{clip-path:url(#SVGID_2_);fill:#DCF0F7;}
	.st39{clip-path:url(#SVGID_2_);fill:#DBEFF7;}
	.st40{clip-path:url(#SVGID_2_);fill:#DAEFF7;}
	.st41{clip-path:url(#SVGID_2_);fill:#D9EEF6;}
	.st42{clip-path:url(#SVGID_2_);fill:#D8EEF6;}
	.st43{clip-path:url(#SVGID_2_);fill:#D7EEF6;}
	.st44{clip-path:url(#SVGID_2_);fill:#D6EDF6;}
	.st45{clip-path:url(#SVGID_2_);fill:#D5EDF6;}
	.st46{clip-path:url(#SVGID_2_);fill:#D4ECF5;}
	.st47{clip-path:url(#SVGID_2_);fill:#D3ECF5;}
	.st48{clip-path:url(#SVGID_2_);fill:#D2EBF5;}
	.st49{clip-path:url(#SVGID_2_);fill:#D1EBF5;}
	.st50{clip-path:url(#SVGID_2_);fill:#D0EAF4;}
	.st51{clip-path:url(#SVGID_2_);fill:#CFEAF4;}
	.st52{clip-path:url(#SVGID_2_);fill:#CEEAF4;}
	.st53{clip-path:url(#SVGID_2_);fill:#CDE9F4;}
	.st54{clip-path:url(#SVGID_2_);fill:#CCE9F3;}
	.st55{clip-path:url(#SVGID_2_);fill:#CBE8F3;}
	.st56{clip-path:url(#SVGID_2_);fill:#CAE8F3;}
	.st57{clip-path:url(#SVGID_2_);fill:#C9E7F3;}
	.st58{clip-path:url(#SVGID_2_);fill:#C8E7F2;}
	.st59{clip-path:url(#SVGID_2_);fill:#C7E6F2;}
	.st60{clip-path:url(#SVGID_2_);fill:#C5E6F2;}
	.st61{clip-path:url(#SVGID_2_);fill:#C4E5F2;}
	.st62{clip-path:url(#SVGID_2_);fill:#C3E5F1;}
	.st63{clip-path:url(#SVGID_2_);fill:#C2E4F1;}
	.st64{clip-path:url(#SVGID_2_);fill:#C1E4F1;}
	.st65{clip-path:url(#SVGID_2_);fill:#C0E3F1;}
	.st66{clip-path:url(#SVGID_2_);fill:#BFE3F0;}
	.st67{clip-path:url(#SVGID_2_);fill:#BEE2F0;}
	.st68{clip-path:url(#SVGID_2_);fill:#BDE2F0;}
	.st69{clip-path:url(#SVGID_2_);fill:#BCE2F0;}
	.st70{clip-path:url(#SVGID_2_);fill:#BAE1EF;}
	.st71{clip-path:url(#SVGID_2_);fill:#B9E1EF;}
	.st72{clip-path:url(#SVGID_2_);fill:#B8E0EF;}
	.st73{clip-path:url(#SVGID_2_);fill:#B7E0EF;}
	.st74{clip-path:url(#SVGID_2_);fill:#B6DFEE;}
	.st75{clip-path:url(#SVGID_2_);fill:#B5DFEE;}
	.st76{clip-path:url(#SVGID_2_);fill:#B4DEEE;}
	.st77{clip-path:url(#SVGID_2_);fill:#B2DEEE;}
	.st78{clip-path:url(#SVGID_2_);fill:#B1DDED;}
	.st79{clip-path:url(#SVGID_2_);fill:#B0DDED;}
	.st80{clip-path:url(#SVGID_2_);fill:#AFDCED;}
	.st81{clip-path:url(#SVGID_2_);fill:#AEDBED;}
	.st82{clip-path:url(#SVGID_2_);fill:#ADDBEC;}
	.st83{clip-path:url(#SVGID_2_);fill:#ABDAEC;}
	.st84{clip-path:url(#SVGID_2_);fill:#AADAEC;}
	.st85{clip-path:url(#SVGID_2_);fill:#A9D9EC;}
	.st86{clip-path:url(#SVGID_2_);fill:#A8D9EB;}
	.st87{clip-path:url(#SVGID_2_);fill:#A7D8EB;}
	.st88{clip-path:url(#SVGID_2_);fill:#A6D8EB;}
	.st89{clip-path:url(#SVGID_2_);fill:#A4D7EA;}
	.st90{clip-path:url(#SVGID_2_);fill:#A3D7EA;}
	.st91{clip-path:url(#SVGID_2_);fill:#A2D6EA;}
	.st92{clip-path:url(#SVGID_2_);fill:#A1D6EA;}
	.st93{clip-path:url(#SVGID_2_);fill:#A0D5E9;}
	.st94{clip-path:url(#SVGID_2_);fill:#9ED5E9;}
	.st95{clip-path:url(#SVGID_2_);fill:#9DD4E9;}
	.st96{clip-path:url(#SVGID_2_);fill:#9CD4E9;}
	.st97{clip-path:url(#SVGID_2_);fill:#9BD3E8;}
	.st98{clip-path:url(#SVGID_2_);fill:#99D3E8;}
	.st99{clip-path:url(#SVGID_2_);fill:#98D2E8;}
	.st100{clip-path:url(#SVGID_2_);fill:#97D1E7;}
	.st101{clip-path:url(#SVGID_2_);fill:#96D1E7;}
	.st102{clip-path:url(#SVGID_2_);fill:#95D0E7;}
	.st103{clip-path:url(#SVGID_2_);fill:#93D0E7;}
	.st104{clip-path:url(#SVGID_2_);fill:#92CFE6;}
	.st105{clip-path:url(#SVGID_2_);fill:#91CFE6;}
	.st106{clip-path:url(#SVGID_2_);fill:#90CEE6;}
	.st107{clip-path:url(#SVGID_2_);fill:#8ECEE5;}
	.st108{clip-path:url(#SVGID_2_);fill:#8DCDE5;}
	.st109{clip-path:url(#SVGID_2_);fill:#8CCDE5;}
	.st110{clip-path:url(#SVGID_2_);fill:#8BCCE5;}
	.st111{clip-path:url(#SVGID_2_);fill:#89CBE4;}
	.st112{clip-path:url(#SVGID_2_);fill:#88CBE4;}
	.st113{clip-path:url(#SVGID_2_);fill:#87CAE4;}
	.st114{clip-path:url(#SVGID_2_);fill:#85CAE3;}
	.st115{clip-path:url(#SVGID_2_);fill:#84C9E3;}
	.st116{clip-path:url(#SVGID_2_);fill:#83C9E3;}
	.st117{clip-path:url(#SVGID_2_);fill:#82C8E3;}
	.st118{clip-path:url(#SVGID_2_);fill:#80C8E2;}
	.st119{clip-path:url(#SVGID_2_);fill:#7FC7E2;}
	.st120{fill:#49B1D7;}
	.st121{fill:#296995;}
	.st122{fill:#173862;}
	.st123{fill:#B697C5;}
	.st124{fill:#FFFFFF;}
</style>
<g>
	<g>
		<g>
			<defs>
				<circle id="SVGID_1_" cx="108.1" cy="35.5" r="35.5"/>
			</defs>
			<clipPath id="SVGID_2_">
				<use xlink:href="#SVGID_1_"  style="overflow:visible;"/>
			</clipPath>
			<rect x="72.5" y="0" class="st0" width="71.1" height="71.1"/>
			<circle class="st0" cx="108.1" cy="35.5" r="35.5"/>
			<circle class="st0" cx="108.1" cy="35.5" r="35.3"/>
			<circle class="st1" cx="108.1" cy="35.5" r="35"/>
			<circle class="st1" cx="108.1" cy="35.5" r="34.7"/>
			<circle class="st2" cx="108.1" cy="35.5" r="34.4"/>
			<circle class="st2" cx="108.1" cy="35.5" r="34.2"/>
			<circle class="st3" cx="108.1" cy="35.5" r="33.9"/>
			<circle class="st3" cx="108.1" cy="35.5" r="33.6"/>
			<circle class="st4" cx="108.1" cy="35.5" r="33.3"/>
			<circle class="st4" cx="108.1" cy="35.5" r="33"/>
			<circle class="st5" cx="108.1" cy="35.5" r="32.8"/>
			<circle class="st6" cx="108.1" cy="35.5" r="32.5"/>
			<circle class="st7" cx="108.1" cy="35.5" r="32.2"/>
			<circle class="st8" cx="108.1" cy="35.5" r="31.9"/>
			<circle class="st9" cx="108.1" cy="35.5" r="31.7"/>
			<circle class="st10" cx="108.1" cy="35.5" r="31.4"/>
			<circle class="st11" cx="108.1" cy="35.5" r="31.1"/>
			<circle class="st12" cx="108.1" cy="35.5" r="30.8"/>
			<circle class="st13" cx="108.1" cy="35.5" r="30.5"/>
			<circle class="st14" cx="108.1" cy="35.5" r="30.3"/>
			<circle class="st15" cx="108.1" cy="35.5" r="30"/>
			<circle class="st16" cx="108.1" cy="35.5" r="29.7"/>
			<circle class="st17" cx="108.1" cy="35.5" r="29.4"/>
			<circle class="st17" cx="108.1" cy="35.5" r="29.2"/>
			<circle class="st18" cx="108.1" cy="35.5" r="28.9"/>
			<circle class="st19" cx="108.1" cy="35.5" r="28.6"/>
			<circle class="st20" cx="108.1" cy="35.5" r="28.3"/>
			<circle class="st21" cx="108.1" cy="35.5" r="28"/>
			<circle class="st21" cx="108.1" cy="35.5" r="27.8"/>
			<circle class="st22" cx="108.1" cy="35.5" r="27.5"/>
			<circle class="st23" cx="108.1" cy="35.5" r="27.2"/>
			<circle class="st24" cx="108.1" cy="35.5" r="26.9"/>
			<circle class="st25" cx="108.1" cy="35.5" r="26.7"/>
			<circle class="st26" cx="108.1" cy="35.5" r="26.4"/>
			<circle class="st27" cx="108.1" cy="35.5" r="26.1"/>
			<circle class="st28" cx="108.1" cy="35.5" r="25.8"/>
			<circle class="st28" cx="108.1" cy="35.5" r="25.5"/>
			<circle class="st29" cx="108.1" cy="35.5" r="25.3"/>
			<circle class="st30" cx="108.1" cy="35.5" r="25"/>
			<circle class="st31" cx="108.1" cy="35.5" r="24.7"/>
			<circle class="st32" cx="108.1" cy="35.5" r="24.4"/>
			<circle class="st33" cx="108.1" cy="35.5" r="24.2"/>
			<circle class="st34" cx="108.1" cy="35.5" r="23.9"/>
			<circle class="st35" cx="108.1" cy="35.5" r="23.6"/>
			<circle class="st36" cx="108.1" cy="35.5" r="23.3"/>
			<circle class="st37" cx="108.1" cy="35.5" r="23"/>
			<circle class="st38" cx="108.1" cy="35.5" r="22.8"/>
			<circle class="st39" cx="108.1" cy="35.5" r="22.5"/>
			<circle class="st40" cx="108.1" cy="35.5" r="22.2"/>
			<circle class="st41" cx="108.1" cy="35.5" r="21.9"/>
			<circle class="st42" cx="108.1" cy="35.5" r="21.7"/>
			<circle class="st43" cx="108.1" cy="35.5" r="21.4"/>
			<circle class="st44" cx="108.1" cy="35.5" r="21.1"/>
			<circle class="st45" cx="108.1" cy="35.5" r="20.8"/>
			<circle class="st46" cx="108.1" cy="35.5" r="20.5"/>
			<circle class="st47" cx="108.1" cy="35.5" r="20.3"/>
			<circle class="st48" cx="108.1" cy="35.5" r="20"/>
			<circle class="st49" cx="108.1" cy="35.5" r="19.7"/>
			<circle class="st50" cx="108.1" cy="35.5" r="19.4"/>
			<circle class="st51" cx="108.1" cy="35.5" r="19.2"/>
			<circle class="st52" cx="108.1" cy="35.5" r="18.9"/>
			<circle class="st53" cx="108.1" cy="35.5" r="18.6"/>
			<circle class="st54" cx="108.1" cy="35.5" r="18.3"/>
			<circle class="st55" cx="108.1" cy="35.5" r="18"/>
			<circle class="st56" cx="108.1" cy="35.5" r="17.8"/>
			<circle class="st57" cx="108.1" cy="35.5" r="17.5"/>
			<circle class="st58" cx="108.1" cy="35.5" r="17.2"/>
			<circle class="st59" cx="108.1" cy="35.5" r="16.9"/>
			<circle class="st60" cx="108.1" cy="35.5" r="16.7"/>
			<circle class="st61" cx="108.1" cy="35.5" r="16.4"/>
			<circle class="st62" cx="108.1" cy="35.5" r="16.1"/>
			<circle class="st63" cx="108.1" cy="35.5" r="15.8"/>
			<circle class="st64" cx="108.1" cy="35.5" r="15.5"/>
			<circle class="st65" cx="108.1" cy="35.5" r="15.3"/>
			<circle class="st66" cx="108.1" cy="35.5" r="15"/>
			<circle class="st67" cx="108.1" cy="35.5" r="14.7"/>
			<circle class="st68" cx="108.1" cy="35.5" r="14.4"/>
			<circle class="st69" cx="108.1" cy="35.5" r="14.2"/>
			<circle class="st70" cx="108.1" cy="35.5" r="13.9"/>
			<circle class="st71" cx="108.1" cy="35.5" r="13.6"/>
			<circle class="st72" cx="108.1" cy="35.5" r="13.3"/>
			<circle class="st73" cx="108.1" cy="35.5" r="13.1"/>
			<circle class="st74" cx="108.1" cy="35.5" r="12.8"/>
			<circle class="st75" cx="108.1" cy="35.5" r="12.5"/>
			<circle class="st76" cx="108.1" cy="35.5" r="12.2"/>
			<circle class="st77" cx="108.1" cy="35.5" r="11.9"/>
			<circle class="st78" cx="108.1" cy="35.5" r="11.7"/>
			<circle class="st79" cx="108.1" cy="35.5" r="11.4"/>
			<circle class="st80" cx="108.1" cy="35.5" r="11.1"/>
			<circle class="st81" cx="108.1" cy="35.5" r="10.8"/>
			<circle class="st82" cx="108.1" cy="35.5" r="10.6"/>
			<circle class="st83" cx="108.1" cy="35.5" r="10.3"/>
			<circle class="st84" cx="108.1" cy="35.5" r="10"/>
			<circle class="st85" cx="108.1" cy="35.5" r="9.7"/>
			<circle class="st86" cx="108.1" cy="35.5" r="9.4"/>
			<circle class="st87" cx="108.1" cy="35.5" r="9.2"/>
			<circle class="st88" cx="108.1" cy="35.5" r="8.9"/>
			<circle class="st89" cx="108.1" cy="35.5" r="8.6"/>
			<circle class="st90" cx="108.1" cy="35.5" r="8.3"/>
			<circle class="st91" cx="108.1" cy="35.5" r="8.1"/>
			<circle class="st92" cx="108.1" cy="35.5" r="7.8"/>
			<circle class="st93" cx="108.1" cy="35.5" r="7.5"/>
			<circle class="st94" cx="108.1" cy="35.5" r="7.2"/>
			<circle class="st95" cx="108.1" cy="35.5" r="6.9"/>
			<circle class="st96" cx="108.1" cy="35.5" r="6.7"/>
			<circle class="st97" cx="108.1" cy="35.5" r="6.4"/>
			<circle class="st98" cx="108.1" cy="35.5" r="6.1"/>
			<circle class="st99" cx="108.1" cy="35.5" r="5.8"/>
			<circle class="st100" cx="108.1" cy="35.5" r="5.6"/>
			<circle class="st101" cx="108.1" cy="35.5" r="5.3"/>
			<circle class="st102" cx="108.1" cy="35.5" r="5"/>
			<circle class="st103" cx="108.1" cy="35.5" r="4.7"/>
			<circle class="st104" cx="108.1" cy="35.5" r="4.4"/>
			<circle class="st105" cx="108.1" cy="35.5" r="4.2"/>
			<circle class="st106" cx="108.1" cy="35.5" r="3.9"/>
			<circle class="st107" cx="108.1" cy="35.5" r="3.6"/>
			<circle class="st108" cx="108.1" cy="35.5" r="3.3"/>
			<circle class="st109" cx="108.1" cy="35.5" r="3.1"/>
			<circle class="st110" cx="108.1" cy="35.5" r="2.8"/>
			<circle class="st111" cx="108.1" cy="35.5" r="2.5"/>
			<circle class="st112" cx="108.1" cy="35.5" r="2.2"/>
			<circle class="st113" cx="108.1" cy="35.5" r="1.9"/>
			<circle class="st114" cx="108.1" cy="35.5" r="1.7"/>
			<circle class="st115" cx="108.1" cy="35.5" r="1.4"/>
			<circle class="st116" cx="108.1" cy="35.5" r="1.1"/>
			<circle class="st117" cx="108.1" cy="35.5" r="0.8"/>
			<circle class="st118" cx="108.1" cy="35.5" r="0.6"/>
			<circle class="st119" cx="108.1" cy="35.5" r="0.3"/>
		</g>
	</g>
	<g>
		<path class="st120" d="M19.3,13.7c4.5,0,8,1.2,10.4,3.5c2.5,2.3,3.7,5.3,3.7,9.1c0,3.8-1.2,6.8-3.7,9.1c-2.5,2.3-6,3.4-10.4,3.4
			h-8.9v12.4l4.7,0.8v3.6H0V52l4.7-0.8v-33L0,17.3v-3.7h4.7H19.3z M10.4,34.3h8.9c2.8,0,5-0.8,6.4-2.3c1.4-1.5,2.1-3.5,2.1-5.8
			c0-2.3-0.7-4.3-2.1-5.8c-1.4-1.6-3.5-2.3-6.4-2.3h-8.9V34.3z"/>
	</g>
	<g>
		<path class="st120" d="M37.6,28.1v-3.7h9.8l0.5,4.5c0.9-1.6,2-2.8,3.3-3.7c1.3-0.9,2.8-1.4,4.4-1.4c0.4,0,0.9,0,1.4,0.1
			c0.5,0.1,0.8,0.1,1.1,0.2l-0.7,5.3l-3.2-0.2c-1.5,0-2.8,0.4-3.8,1.1c-1,0.7-1.8,1.7-2.4,3v17.9l4.7,0.8v3.6H37.6V52l4.7-0.8V28.9
			L37.6,28.1z"/>
	</g>
	<g>
		<path class="st121" d="M62.9,52l4.7-0.8V28.9l-4.7-0.8v-3.7h10.4v26.7L78,52v3.6H62.9V52z M73.3,16.5h-5.7v-5.8h5.7V16.5z"/>
	</g>
	<g>
		<path class="st122" d="M137.7,55.6V52l4.7-0.8v-33l-4.7-0.8v-3.7h32.2v10.1H165l-0.5-5.6h-16.5v13.6h16v4.5h-16v15h16.8l0.5-5.6
			h4.8v10.1H137.7z"/>
	</g>
	<g>
		<g>
			<path class="st123" d="M108.3,67c-0.2,0-0.3-0.1-0.4-0.2l-8.5-12.1l-9.1,6.9c-0.2,0.1-0.5,0.1-0.6,0c-0.2-0.2-0.2-0.4-0.1-0.6
				l7-10.1L83.8,32.6l-3.9,12.5l-1-0.3l4.1-13.3L79,25.8c-0.1-0.2-0.1-0.4,0-0.6c0.1-0.2,0.4-0.2,0.6-0.2l5,1.7L90.1,9
				c0-0.1,0.1-0.2,0.3-0.3c0.1-0.1,0.3-0.1,0.4,0l17,6V4c0-0.2,0.2-0.5,0.4-0.5c0.2,0,0.5,0.1,0.6,0.3l4.1,12.6l6.2,2.2l6.8-9.7
				c0.1-0.2,0.3-0.3,0.6-0.2c0.2,0.1,0.4,0.3,0.4,0.5l0.1,12.2l10.4,3.7c0.2,0.1,0.3,0.2,0.3,0.4c0,0.2,0,0.4-0.2,0.5L127,33.8
				l0.1,7.5l10.2,3.5l-0.3,0.9l-9.9-3.4l0.2,18.8c0,0.2-0.2,0.5-0.4,0.5c-0.2,0-0.5-0.1-0.6-0.3l-7-21.6l-0.1,0l-10.5,7.9v18.9
				c0,0.2-0.1,0.4-0.3,0.5C108.4,67,108.3,67,108.3,67z M100.2,54.1l7.6,10.8V48.4L100.2,54.1z M97.3,51.7l-5,7.2l6.6-5L97.3,51.7z
				 M120.5,40.1l5.8,17.8L126.1,42L120.5,40.1z M97.9,50.8l1.8,2.5l8.2-6.2V36.6L97.9,50.8z M84.2,31.4l13.1,18.5l10-14.4l-22-7.5
				L84.2,31.4z M108.8,36.1v10.3l9.3-7.1L108.8,36.1z M120.2,38.9l5.9,2l-0.1-6.4L120.2,38.9z M108.8,35l10.1,3.5l-4-12.3L108.8,35z
				 M115.7,25.2l4.1,12.8l6.2-4.7l-0.1-11.2l-6.5-2.3L115.7,25.2z M85.5,27.1l22.3,7.6v-19L90.9,9.8L85.5,27.1z M108.8,16.1v17.3
				l5.8-8.3l-2.5-7.8L108.8,16.1z M126.9,22.4l0.1,10.1l9.1-6.9L126.9,22.4z M80.7,26.5l2.7,3.9l0.8-2.7L80.7,26.5z M113.2,17.6
				l2.1,6.4l3.2-4.5L113.2,17.6z M120.1,19l5.9,2.1l-0.1-10.3L120.1,19z M108.8,15l2.9,1l-2.9-8.9V15z"/>
		</g>
		<g>
			
				<rect x="113.7" y="42.6" transform="matrix(0.2927 -0.9562 0.9562 0.2927 52.0307 156.5845)" class="st123" width="36.3" height="1"/>
		</g>
		<g>
			<path class="st123" d="M108.4,66.8c-0.1,0-0.2,0-0.2-0.1c-0.2-0.1-0.3-0.4-0.3-0.6l10.6-33.7L85.2,43.6L90.7,61l-1,0.3l-5.5-17.4
				l-4.7,1.5c-0.2,0.1-0.5,0-0.6-0.2c-0.1-0.2-0.1-0.5,0.1-0.6l4.3-3.2l-4.9-15.7c-0.1-0.2,0-0.4,0.2-0.6l29.4-21.5
				c0.2-0.1,0.4-0.1,0.6,0l12.4,9.4l4.7-3.5c0.2-0.1,0.4-0.1,0.6,0c0.2,0.1,0.3,0.4,0.2,0.6l-1.8,5.8l12.7,9.6
				c0.2,0.2,0.3,0.5,0.1,0.7l-28.8,40.5C108.7,66.8,108.5,66.8,108.4,66.8z M119.7,32.1l-9.9,31.3l26.1-36.7L119.7,32.1z M83.8,42.4
				l-1.6,1.2l1.8-0.6L83.8,42.4z M84.6,41.7l0.3,0.9l34-11.3l4.8-15.2l-2.5-1.9L84.6,41.7z M79.6,25.7l4.7,15l36-27.1l-11.9-9
				L79.6,25.7z M124.5,16.8L120,31l16.1-5.3L124.5,16.8z M121.9,13.7l2,1.5l1.2-3.9L121.9,13.7z"/>
		</g>
		<g>
			<path class="st123" d="M136.8,45.6L108.1,5.1L80,45.1l-0.8-0.6l28.5-40.6c0.1-0.1,0.2-0.2,0.4-0.2h0c0.2,0,0.3,0.1,0.4,0.2
				l29.1,41L136.8,45.6z"/>
		</g>
	</g>
	<g>
		<path class="st122" d="M128.6,60.5h-4v-44L110,36.7c-0.4,0.5-1,0.8-1.6,0.8c0,0,0,0,0,0c-0.6,0-1.2-0.3-1.6-0.8L92.1,16.4v44h-4
			V10.2c0-0.9,0.6-1.6,1.4-1.9c0.8-0.3,1.7,0,2.2,0.7l16.6,23.1L124.9,9c0.5-0.7,1.4-1,2.2-0.7c0.8,0.3,1.4,1,1.4,1.9V60.5z"/>
	</g>
	<g>
		<circle class="st124" cx="90.1" cy="10.2" r="4.9"/>
		<path class="st122" d="M90.1,17c-3.7,0-6.8-3-6.8-6.8s3-6.8,6.8-6.8s6.8,3,6.8,6.8S93.8,17,90.1,17z M90.1,7.2c-1.7,0-3,1.4-3,3
			s1.4,3,3,3s3-1.4,3-3S91.8,7.2,90.1,7.2z"/>
	</g>
	<g>
		<circle class="st124" cx="126.6" cy="10.2" r="4.9"/>
		<path class="st122" d="M126.6,17c-3.7,0-6.8-3-6.8-6.8s3-6.8,6.8-6.8c3.7,0,6.8,3,6.8,6.8S130.3,17,126.6,17z M126.6,7.2
			c-1.7,0-3,1.4-3,3s1.4,3,3,3s3-1.4,3-3S128.2,7.2,126.6,7.2z"/>
	</g>
	<g>
		<circle class="st124" cx="90.1" cy="60.5" r="4.9"/>
		<path class="st122" d="M90.1,67.2c-3.7,0-6.8-3-6.8-6.8s3-6.8,6.8-6.8s6.8,3,6.8,6.8S93.8,67.2,90.1,67.2z M90.1,57.4
			c-1.7,0-3,1.4-3,3s1.4,3,3,3s3-1.4,3-3S91.8,57.4,90.1,57.4z"/>
	</g>
	<g>
		<circle class="st124" cx="108.4" cy="35.5" r="4.9"/>
		<path class="st122" d="M108.4,42.3c-3.7,0-6.8-3-6.8-6.8c0-3.7,3-6.8,6.8-6.8s6.8,3,6.8,6.8C115.1,39.3,112.1,42.3,108.4,42.3z
			 M108.4,32.5c-1.7,0-3,1.4-3,3s1.4,3,3,3s3-1.3,3-3S110,32.5,108.4,32.5z"/>
	</g>
	<g>
		<circle class="st124" cx="126.6" cy="60.5" r="4.9"/>
		<path class="st122" d="M126.6,67.2c-3.7,0-6.8-3-6.8-6.8s3-6.8,6.8-6.8c3.7,0,6.8,3,6.8,6.8S130.3,67.2,126.6,67.2z M126.6,57.4
			c-1.7,0-3,1.4-3,3s1.4,3,3,3s3-1.4,3-3S128.2,57.4,126.6,57.4z"/>
	</g>
</g>
</svg>
